<svg width="301" height="301" viewBox="0 0 301 301" fill="none" xmlns="http://www.w3.org/2000/svg">
<path d="M150.499 300.998C233.617 300.998 300.998 233.617 300.998 150.499C300.998 67.3807 233.617 0 150.499 0C67.3807 0 0 67.3807 0 150.499C0 233.617 67.3807 300.998 150.499 300.998Z" fill="#E03131"/>
<path fill-rule="evenodd" clip-rule="evenodd" d="M152.489 34.8786C167.101 34.8786 180.017 40.2855 187.695 48.5048L191.391 43.1555C182.44 34.1807 168.343 28.3953 152.489 28.3953C136.608 28.3953 122.494 34.1982 113.543 43.1957L117.237 48.5519C124.908 40.3064 137.848 34.8786 152.489 34.8786ZM177.068 55.6715C170.683 50.7671 162.097 48.0645 152.889 48.0645H152.891C143.683 48.0645 135.096 50.7671 128.711 55.6715C127.26 56.7769 125.922 58.0247 124.716 59.3964L120.974 53.9686C128.192 46.4541 139.798 41.5829 152.891 41.5829C165.673 41.5829 177.042 46.2291 184.291 53.4417L180.567 58.8433C179.534 57.7302 178.365 56.6694 177.068 55.6715ZM152.489 61.8133C160.915 61.8133 168.546 64.8613 173.25 69.4482L176.968 64.0675C171.094 58.7252 162.308 55.33 152.489 55.33C142.645 55.33 133.838 58.7409 127.964 64.1076L131.679 69.497C136.379 64.8823 144.036 61.8133 152.489 61.8133ZM106.764 162.166V205.419C108.857 208.244 110.134 210.981 110.134 214.399C110.134 218.656 108.238 222.477 105.26 225.025L101.547 221.258C103.675 219.632 104.921 217.097 104.915 214.41C104.915 209.682 101.141 205.847 96.4863 205.847C91.833 205.847 88.0609 209.682 88.0609 214.411C88.0553 217.079 89.2826 219.597 91.3821 221.226L87.6741 224.991C84.7205 222.444 82.7746 218.648 82.7746 214.411C82.7746 210.99 83.8204 207.841 85.9033 205.419V138.253C86.2502 135.666 88.2187 133.574 90.7543 133.574L212.089 133.589C214.626 133.589 216.628 135.666 216.976 138.253V205.452C218.71 207.872 220.105 211.004 220.105 214.427C220.097 218.5 218.318 222.366 215.237 225.007L211.51 221.242C213.607 219.612 214.831 217.093 214.822 214.427C214.822 209.699 211.045 205.864 206.39 205.864C201.736 205.864 197.961 209.697 197.961 214.427C197.961 217.229 199.282 219.714 201.327 221.277L197.616 225.046C194.517 222.391 192.735 218.502 192.74 214.408C192.74 210.988 194.088 208.244 196.115 205.419V162.522H190.205V253.338L193.682 255.669V263.136H153.005V255.669L157.523 253.427V225.361H145.703L145.712 253.338L149.88 255.669V263.136H108.85V255.669L113.021 253.343V162.166H106.764ZM121 76.3819H182.655C185.193 76.3819 187.425 78.4965 187.425 81.0752V121.915C187.425 124.478 185.193 126.513 182.655 126.513H121.001C118.473 126.513 116.501 124.478 116.501 121.915V81.0752C116.501 78.4965 118.473 76.3819 121 76.3819ZM136.123 106.355C131.794 106.355 128.279 102.775 128.279 98.3873C128.279 93.9784 131.794 90.4087 136.123 90.4087C140.457 90.4087 143.971 93.9766 143.971 98.3873C143.971 102.775 140.457 106.354 136.123 106.354V106.355ZM159.772 98.3873C159.772 102.775 163.291 106.355 167.636 106.355V106.354C171.972 106.354 175.485 102.775 175.485 98.3873C175.485 93.9766 171.972 90.4087 167.636 90.4087C163.293 90.4087 159.772 93.9784 159.772 98.3873ZM140.143 98.3885C140.151 100.63 138.352 102.455 136.123 102.464C133.914 102.464 132.112 100.632 132.112 98.3885C132.112 96.1204 133.915 94.3024 136.123 94.3024C137.196 94.3056 138.223 94.7385 138.977 95.5053C139.732 96.2721 140.151 97.3096 140.143 98.3885ZM163.621 98.3885C163.612 100.629 165.409 102.453 167.636 102.464C169.865 102.452 171.666 100.631 171.668 98.3885C171.675 96.1406 169.87 94.312 167.636 94.3024C165.418 94.3024 163.621 96.1204 163.621 98.3885Z" fill="white"/>
</svg>
