<svg xmlns="http://www.w3.org/2000/svg" xmlns:xlink="http://www.w3.org/1999/xlink" viewBox="0 0 350.625 85" fill="#fff" fill-rule="evenodd" stroke="#000" stroke-linecap="round" stroke-linejoin="round"><use xlink:href="#A" x="10.313" y="2.5"/><symbol id="A" overflow="visible"><g fill="#131b28" stroke="none"><path d="M141.114 28.801l.001-.003-2.113 7.411 2.112-7.407zm10.866 16.088l-2.328-.014 2.328.014zm-.598 11.066h.003l-13.948.05 13.946-.05z"/><path d="M154.306 44.903l-2.329-.014 2.329.014zm-1.702 10.112l2.43-9.171-2.43 9.173v-.001zm51.353-42.233l-4.526 21.059 4.526-21.059zm-11.634-.001l-3.436 15.732 3.436-15.733v.001z"/><path d="M203.182 11.834h-9.678c-.537 0-1.07.426-1.185.946l-3.436 15.733-3.436 15.733a1.27 1.27 0 0 1-1.183.944h-5.873-.978c-6.777 0-5.993-4.639-4.605-10.995l.042-.192.152-.801.028-.151.309-1.631.332-1.748.354-1.782 1.562-7.553 1.563-7.553a.76.76 0 0 0-.782-.949h-9.934c-.537 0-1.069.428-1.179.947l-2.136 10.03-2.136 10.028-.202.947c-2.46 11.117-1.808 21.718 11.563 22.05l.388.008h20.989c.537 0 1.069-.426 1.181-.947l4.526-21.057 4.526-21.059c.112-.521-.237-.947-.774-.947zm38.61 33.466c.538 0 .889.426.782.947l-.94 4.546"/><path d="M240.695 55.341l.939-4.549-.94 4.55zm-1.178.957l-17.836.086 17.835-.085zm-23.61-16.854c-.008-.498.565-1.355 1.102-1.355l-1.209-.02c-.545 5.422.106 1.375.106 1.375z"/><path d="M222.562 56.382l-.186.001.186-.001zm19.23-11.082c.538 0 .889.426.782.947l-1.093 5.288m-14.337 4.836h-.039.039zm-2.375.008h-.138.138zm-.725.002l-.228.001.228-.001zm-.738.001h-.2.2z"/><path d="M224.629 56.379l-.586.001.586-.001zm2.478-.008l-2.335.008 2.335-.008zm12.415-.075h.001l-12.382.075 12.381-.075zm1.173-.953l.787-3.809-.788 3.812zm-16.878 1.039h-.511.511zm-1.443.001h-.691.691zm.731-.001h-.545.545zM81.53 39.559l1.503-6.596-1.719 7.54-1.65 7.68 1.446-6.732.419-1.892zm17.994-27.836H88.895c-.538 0-1.074.425-1.194.943l-1.008 4.403-1.008 4.404a.74.74 0 0 0 .762.943h10.711c.537 0 1.071-.425 1.186-.944l.974-4.403.974-4.4v-.001c.115-.519-.231-.944-.769-.944zM97.21 26.368v-.001l-3.117 14.274 3.117-14.273zM66.334 73.663l8.764.069c-2.587 0-6.86-.047-8.768-.07z"/><path d="M84.537 26.367l-1.505 6.596 1.505-6.596z"/><path d="M96.442 25.423H85.73c-.537 0-1.074.425-1.192.944l-1.505 6.596-1.503 6.596-.419 1.892-1.446 6.732-1.445 6.733a20.16 20.16 0 0 1-.516 1.862s-2.001 5.894-5.365 5.827l-.42-.008-2.911-.053h-.002c-.536-.008-1.076.407-1.201.923l-1.111 4.622-1.11 4.62c-.125.516.212.943.746.952l8.768.07c8.404 0 12.834-4.608 15.674-17.869l3.324-15.22 3.117-14.274c.113-.519-.234-.944-.771-.944zm152.176 30.422a.75.75 0 0 1-.772-.947l8.059-37.358m3.912 37.355l3.259-15.945-3.259 15.945z"/><path d="M247.962 55.37c-.065-.26-.027-.899.087-1.419l3.824-17.733-4.029 18.679a.75.75 0 0 0 .773.947h.979c-.538 0-1.569-.213-1.633-.474zm11.218.261c-.292.117-.973.213-1.51.213h.979c.537 0 1.065-.426 1.171-.949l.194-.947c-.107.521-.54 1.566-.833 1.683zm2.269-8.708l1.439-7.038-1.439 7.038zm31.796-26.882l.444 1.815c.122.519-.217.941-.753.943"/><path d="M260.012 53.948l1.435-7.025-1.435 7.025zm32.793-35.766l.439 1.86-.439-1.86zm-29.919 21.704l.396-1.881 1.536-7.124-1.74 8.07-.192.935zm-6.851-22.96l-.335 1.558-3.825 17.734 4.029-18.68.13-.612z"/><path d="M293.687 21.856l-.444-1.815-.439-1.859-.222-.941c-.87-3.346-3.424-5.277-8.97-5.277l-8.635-.009-7.952-.009h-.682-8.265a1.26 1.26 0 0 0-1.179.946h-.001l-.395 1.85-.467 2.185-.13.612-4.029 18.68-3.824 17.733c-.114.521-.152 1.159-.087 1.419s1.096.474 1.633.474h8.072c.538 0 1.218-.096 1.51-.213s.726-1.162.833-1.683l1.435-7.025 1.436-7.024c.002-.014.194-.949.194-.949l1.74-8.07 1.537-7.127c.114-.518.643-.941 1.179-.943l25.399-.012c.536-.001.875-.423.753-.943zm32.698-16.414l-1.955.007h-8.13a2.09 2.09 0 0 0-1.529.799l-17.977 26.066c-.304.44-.65.375-.769-.143l-1.323-5.743c-.119-.519-.658-.943-1.195-.943H281.95c-.538 0-.856.417-.709.929l5.179 17.955c.148.512.159 1.352.025 1.867l-2.257 8.69c-.134.516.197.938.735.938h11.422a1.33 1.33 0 0 0 1.219-.938l2.258-8.69a5.75 5.75 0 0 1 .831-1.71l29.185-38.337c.324-.425.149-.771-.389-.767l-3.064.02zm-91.816 22.487c-.068.567-.606.99-1.143.99h-14.652c-.506 0-.764-.341-.689-.761.004-.012.006-.023.014-.034-.006-.012-.006-.028-.001-.044l.067-.247c1.399-3.682 4.25-6.099 9.607-6.099 6.031 0 7.208 2.916 6.798 6.195zm-4.298-16.738c-18.808 0-23.264 11.298-25.764 22.702-2.5 11.623-2.285 22.49 17.176 22.49h.691l.186-.001h.545.2.511l.228-.001.586-.001h.138l2.335-.008h.039l12.383-.075c.534-.008 1.056-.434 1.166-.95l.788-3.812.153-.742.94-4.546c.108-.521-.244-.947-.782-.947h-17.496c-6.959 0-9.025-1.831-8.264-7.211h27.969a1.16 1.16 0 0 0 1.035-.714c.031-.078.057-.158.068-.242 4.15-15.5 2.959-25.941-14.832-25.941zM141.379 27.87l-.265.927c-.001.003-2.112 7.411-2.112 7.411l-2.111 7.406a1.37 1.37 0 0 1-1.243.931H124.47c-8.479 0-10.544-6.563-8.479-16.244 2.064-9.902 6.112-16.057 14.457-16.681 11.404-.851 13.685 7.087 10.932 16.251zm7.666 16.105s5.27-12.665 6.467-19.98C157.145 14.202 152.191 0 133.056 0c-19.026 0-27.287 13.559-30.44 28.299-3.152 14.847.978 27.867 19.895 27.761l14.924-.055 13.948-.05a1.35 1.35 0 0 0 1.223-.94l2.43-9.173c.135-.515-.193-.938-.73-.941l-2.329-.014-2.328-.014c-.457-.003-.719-.296-.663-.684a.88.88 0 0 1 .057-.216z"/><path d="M243.228 35.499a.64.64 0 0 1-.642.635.64.64 0 0 1-.642-.635c0-.35.288-.633.642-.633s.642.283.642.633z"/></g><path d="M3.768 19.031c-5.253 7.473-4.599 17.195-.586 25.135.095.19.196.378.294.565l.188.358c.037.07.078.139.117.206l.209.37.383.65.218.356a29.82 29.82 0 0 0 .445.688l.189.289a32.39 32.39 0 0 0 .644.92c.005.008.011.017.018.024.035.049.073.096.109.145a29.99 29.99 0 0 0 .587.772l.221.279.542.659.207.245c.247.288.498.574.755.854.005.004.011.011.015.015.011.012.02.02.029.032a37.54 37.54 0 0 0 .768.801l.246.245.613.595.251.236a31.44 31.44 0 0 0 .84.757l.159.134.763.638.316.25.636.492.34.256.714.507.26.183.072.05c.228.155.461.304.693.454l.3.198a38.83 38.83 0 0 0 1.086.658l.3.168.815.452c.148.079.301.154.451.23l.583.3.135.064.239.114.924.423.195.087a32.91 32.91 0 0 0 1.078.443l.262.102 1.017.373.128.044a34.87 34.87 0 0 0 1.134.367l.274.081c.388.116.771.254 1.171.328C50.521 66.208 57.9 46.512 57.9 46.512c-6.198 7.992-17.2 10.1-27.623 7.753-.395-.088-.778-.21-1.163-.323l-.29-.087a35.63 35.63 0 0 1-1.12-.361l-.154-.055a36.29 36.29 0 0 1-.988-.362l-.277-.108a30.17 30.17 0 0 1-1.066-.439l-.213-.093-.899-.414-.26-.123c-.234-.113-.465-.233-.696-.351l-.465-.241c-.282-.149-.558-.304-.834-.463l-.282-.155a40.63 40.63 0 0 1-1.086-.658c-.099-.062-.195-.129-.293-.193l-.773-.508-.249-.173-.731-.523-.324-.242-.659-.51-.294-.233-.821-.685-.09-.075a39.63 39.63 0 0 1-.863-.777l-.243-.231a25.15 25.15 0 0 1-.62-.602l-.243-.241a32.41 32.41 0 0 1-.761-.797c-.012-.014-.025-.026-.038-.04a31.76 31.76 0 0 1-.772-.87l-.202-.238-.556-.679-.204-.251-.642-.845C5.319 33.506 3.24 22.73 7.865 13.881m12.21-1.146c-3.799 5.411-3.593 12.654-.629 18.377a23.9 23.9 0 0 0 1.68 2.776c.569.807 1.2 1.768 1.956 2.417a22.95 22.95 0 0 0 .852.876c.074.075.149.146.225.219a23.67 23.67 0 0 0 .871.801c.012.009.023.021.035.031.338.294.679.57 1.026.841l.231.178a24.82 24.82 0 0 0 1.064.769l.031.023c.16.11.323.212.485.317.078.05.152.104.23.151a21.66 21.66 0 0 0 .789.478c.038.023.075.043.112.064l.697.385c.082.046.165.085.248.128l.488.25c.025.012.05.023.074.034a24.74 24.74 0 0 0 1.017.469c.074.032.15.061.225.091a26.27 26.27 0 0 0 .834.335l.357.129c.254.093.509.178.766.264l.346.11c.365.113.726.254 1.107.317 19.615 3.216 24.144-11.731 24.144-11.731-4.082 5.819-11.988 8.595-20.423 6.428-.375-.097-.744-.204-1.111-.318-.112-.033-.222-.07-.334-.107-.261-.084-.52-.172-.777-.265l-.351-.129a25.85 25.85 0 0 1-.836-.334l-.225-.094a23.51 23.51 0 0 1-1.023-.471c-.173-.084-.343-.172-.513-.259l-.296-.151a24.51 24.51 0 0 1-.649-.362l-.155-.087a26.02 26.02 0 0 1-.786-.475c-.08-.05-.157-.105-.237-.157l-.509-.334a27.36 27.36 0 0 1-1.06-.768l-.238-.186c-3.693-2.886-6.62-6.829-8.011-11.3-1.458-4.637-1.144-9.843 1.383-14.067m10.605-.367c-2.24 3.262-2.46 7.313-.906 10.916 1.639 3.824 4.997 6.824 8.916 8.246.162.059.323.113.487.168l.215.067c.231.072.46.155.698.2 10.831 2.071 13.769-5.501 14.551-6.615-2.574 3.667-6.898 4.547-12.204 3.273a13.93 13.93 0 0 1-1.284-.392c-.518-.183-1.029-.391-1.525-.627a15.8 15.8 0 0 1-2.673-1.614c-4.748-3.566-7.698-10.368-4.6-15.908m120.31 65.822l-3.122 7.037h-3.447l.282-6.394-2.537 6.394h-3.337l-.088-7.037.369-1.738h2.363l-.456 6.951 2.624-6.951h3.295l-.238 7.037 2.602-7.037h2.059l-.369 1.738zm5.439 2.083c.304-1.374.217-1.631-.499-1.631h-1.084l-.694 3.219-1.062 3.367h-2.016l1.647-7.638.239-1.116h1.843l.239.515s1.062-.621 2.102-.621c2.212 0 2.039 1.651 1.561 3.905h-2.276zm6.548-4.915c-.888 0-1.452-.257-1.236-1.33.238-1.074.932-1.331 1.799-1.331s1.453.257 1.215 1.331c-.217 1.051-.91 1.33-1.778 1.33zm-.953 9.87h-1.996l.391-3.433.694-3.175-1.387-.301.39-1.866h3.793l-1.885 8.775zm8.648-6.914l-2.493.302-.716 3.347c-.195.923-.195 1.18.629 1.18h1.669l-.347 1.759s-1.516.451-2.168.451c-2.558 0-2.537-1.395-2.08-3.477l.694-3.282-1.388-.3.412-1.867h1.453l.824-2.211h1.973l-.478 2.211h2.428l-.412 1.887zm5.181.113c-1.17 0-1.778.602-2.016 1.674l3.338-.279c.152-.73 0-1.395-1.322-1.395zm-2.34 3.26c-.153 1.074.259 1.438 1.646 1.438h3.49l-.346 1.631s-2.103.579-3.664.579c-3.881 0-3.924-2.166-3.425-4.483.499-2.275 1.387-4.526 5.137-4.526 3.621 0 3.795 2.166 2.906 5.362h-5.744zm13.697 3.539h-1.993l.39-3.433 1.409-6.523-1.389-.321.412-1.867h3.794l-2.624 12.144zm7.204-6.799c-1.172 0-1.778.602-2.017 1.674l3.339-.279c.151-.73 0-1.395-1.322-1.395zm-2.342 3.26c-.152 1.074.261 1.438 1.647 1.438h3.491l-.347 1.631s-2.103.579-3.664.579c-3.881 0-3.923-2.166-3.424-4.483.499-2.275 1.388-4.526 5.138-4.526 3.621 0 3.794 2.166 2.906 5.362h-5.746zm14.891-3.154l-3.23.021c-1.475 0-1.626.449-1.734.921l-.088.429 4.683.344s.022 1.48-.174 2.316c-.281 1.395-1.734 2.81-4.357 2.81-1.302 0-3.404-.492-3.404-.492l.369-1.695h3.23c1.431 0 1.627-.387 1.714-.772l.108-.557-4.596-.344s-.173-1.138.065-2.274c.348-1.546 1.777-2.875 4.401-2.875 1.301 0 3.404.471 3.404.471l-.39 1.697zm8.716 0l-3.23.021c-1.474 0-1.626.449-1.734.921l-.088.429 4.684.344s.022 1.48-.174 2.316c-.282 1.395-1.734 2.81-4.358 2.81-1.3 0-3.404-.492-3.404-.492l.369-1.695h3.23c1.43 0 1.626-.387 1.713-.772l.108-.557-4.596-.344s-.173-1.138.065-2.274c.348-1.546 1.777-2.875 4.401-2.875 1.3 0 3.403.471 3.403.471l-.39 1.697zm2.729 8.09h-1.733l.065-1.288c-.629-.041-.954-.492-.802-1.244.238-1.072.911-1.329 1.799-1.329.867 0 1.451.257 1.214 1.329L223.193 80zm11.597-8.003c-1.3 0-1.755.772-2.059 2.188s-.217 2.252 1.083 2.252h1.799l.998-4.441h-1.822zm2.97 5.47l-.239 1.138-1.82-.021-.261-.557s-1.605.685-2.687.685c-2.776 0-2.906-2.252-2.407-4.526.499-2.318 1.583-4.506 4.336-4.506.998 0 2.341.493 2.341.493l1.106-3.711h1.995l-2.363 11.006zm7.177-5.557c-1.69 0-2.233.943-2.537 2.316-.281 1.395-.151 2.339 1.517 2.339 1.735 0 2.256-.923 2.558-2.339.305-1.331.217-2.316-1.539-2.316zm-1.473 6.823c-3.578 0-3.86-2.21-3.383-4.506.499-2.295 1.757-4.483 5.334-4.483 3.554 0 3.881 2.188 3.381 4.483-.498 2.339-1.756 4.506-5.332 4.506zm20.292-.13l.391-3.39.195-.966c.282-1.287.455-2.231-.911-2.231h-1.062c.044.666-.087 1.416-.26 2.21l-.932 4.377h-2.017l.39-3.39.195-.966c.282-1.287.455-2.231-.909-2.231h-.868l-1.431 6.587h-2.32l1.886-8.775h1.821l.282.536s1.236-.644 2.234-.644c.759 0 1.322.344 1.518.772.433-.236 1.669-.772 2.559-.772 2.773 0 2.687 2.231 2.188 4.506l-.932 4.377h-2.016zm9.214-6.693c-1.692 0-2.233.943-2.537 2.316-.282 1.395-.151 2.339 1.517 2.339 1.734 0 2.256-.923 2.559-2.339.303-1.331.216-2.316-1.539-2.316zm-1.474 6.823c-3.578 0-3.859-2.21-3.382-4.506.498-2.295 1.756-4.483 5.333-4.483 3.556 0 3.881 2.188 3.381 4.483-.498 2.339-1.756 4.506-5.332 4.506zm11.357-5.083c.303-1.374.217-1.631-.498-1.631h-1.085l-.694 3.219-1.062 3.367h-2.016l1.647-7.638.239-1.116h1.843l.238.515s1.063-.621 2.104-.621c2.21 0 2.036 1.651 1.559 3.905h-2.276zm7.765-1.846c-1.169 0-1.777.602-2.015 1.674l3.337-.279c.153-.73 0-1.395-1.322-1.395zm-2.341 3.26c-.151 1.074.26 1.438 1.647 1.438h3.49l-.346 1.631s-2.103.579-3.664.579c-3.881 0-3.924-2.166-3.427-4.483.499-2.275 1.389-4.526 5.139-4.526 3.62 0 3.794 2.166 2.905 5.362h-5.745zm7.692 3.669c-.911 0-1.473-.257-1.235-1.308.215-1.075.888-1.331 1.8-1.331.845 0 1.43.256 1.214 1.331-.24 1.029-.932 1.308-1.779 1.308z" stroke="none" fill="#0868ac"/></symbol></svg>